<svg xmlns="http://www.w3.org/2000/svg" xmlns:xlink="http://www.w3.org/1999/xlink" width="400" height="400" viewBox="0 0 400 400" fill="none">
<path     fill="#FFFFFF" fill-opacity="0" d="M0 400L400 400L400 0L0 0L0 400Z">
</path>
<path     fill="url(#linear_fill_0_4_0)"  d="M373.205 136.95L373.205 263.05C373.205 285.915 361.007 307.043 341.205 318.475L232 381.525C212.198 392.957 187.802 392.957 168 381.525L58.7949 318.475C38.9932 307.043 26.7949 285.915 26.7949 263.05L26.7949 136.95C26.7949 114.085 38.9932 92.9573 58.7949 81.5248L168 18.4752C187.802 7.04272 212.198 7.04272 232 18.4752L341.205 81.5248C361.007 92.9573 373.205 114.085 373.205 136.95Z">
</path>
<g filter="url(#filter_0_5)">
<path d="M199.667 172.282L56 172.282C56 172.282 82.5995 298.5 189 298.5C295.4 298.5 344 172.282 344 172.282L153.133 268.18C153.133 268.18 172.278 217.748 199.667 172.282ZM344 172.282L199.667 172.282C172.278 217.748 153.133 268.18 153.133 268.18L344 172.282ZM344 172.282C344 172.282 338.867 101 277.733 101C250.176 101 222.146 134.968 199.667 172.282L344 172.282Z" stroke="rgba(166, 166, 166, 1)" stroke-width="1"    fill-rule="evenodd"  fill="url(#linear_fill_0_5)" >
</path>
</g>
<g >
<path     fill="#FFFFFF"  d="M73.592 163.008Q71.448 163.008 70.488 162.336Q69.528 161.664 69.528 160.512Q69.528 159.856 69.968 159.272Q70.408 158.688 71.032 158.4Q70.296 157.968 70.296 157.024Q70.296 156.48 70.648 155.992Q71 155.504 71.56 155.232Q70.68 154.896 70.248 154.208Q69.816 153.52 69.816 152.576Q69.816 151.664 70.352 150.984Q70.888 150.304 71.792 149.936Q72.696 149.568 73.752 149.568Q75.624 149.568 76.536 150.288Q76.744 150.016 77.24 149.776Q77.736 149.536 78.264 149.536L78.824 149.536L78.824 151.28L77.176 151.28Q77.416 151.792 77.416 152.368Q77.432 153.824 76.392 154.696Q75.352 155.568 73.544 155.568Q72.792 155.568 72.28 155.456Q72.12 155.664 72.032 155.896Q71.944 156.128 71.944 156.304Q71.944 156.832 72.32 157.024Q72.696 157.216 73.672 157.216L75.384 157.216Q78.648 157.216 78.648 159.584Q78.648 160.576 77.944 161.36Q77.24 162.144 76.072 162.576Q74.904 163.008 73.592 163.008ZM73.704 154.576Q75.192 154.576 75.192 152.544Q75.192 151.504 74.816 151.016Q74.44 150.528 73.672 150.528Q72.92 150.528 72.512 151.016Q72.104 151.504 72.104 152.48Q72.104 154.576 73.704 154.576ZM73.832 161.904Q74.84 161.904 75.576 161.416Q76.312 160.928 76.312 160.064Q76.312 159.376 75.952 159.072Q75.592 158.768 74.664 158.768L72.92 158.768Q72.52 158.768 72.184 158.72Q71.752 159.296 71.752 160.096Q71.752 160.976 72.232 161.44Q72.712 161.904 73.832 161.904ZM79.672 157.744L80.728 157.616L80.728 151.312L79.704 151.024L79.704 149.92L82.184 149.584L82.232 149.584L82.632 149.904L82.632 150.256L82.584 151.552L82.632 151.552Q82.744 151.232 83.16 150.76Q83.576 150.288 84.208 149.928Q84.84 149.568 85.576 149.568Q85.928 149.568 86.184 149.664L86.184 152.064Q85.704 151.728 85.016 151.728Q83.848 151.728 82.984 152.352L82.984 157.6L84.84 157.744L84.84 158.688L79.672 158.688L79.672 157.744ZM87.032 156.192Q87.032 154.736 88.496 154Q89.96 153.264 92.28 153.248L92.28 152.88Q92.28 152.224 92.144 151.856Q92.008 151.488 91.648 151.304Q91.288 151.12 90.6 151.12Q89.816 151.12 89.192 151.32Q88.568 151.52 87.896 151.84L87.4 150.816Q87.64 150.608 88.208 150.32Q88.776 150.032 89.56 149.816Q90.344 149.6 91.176 149.6Q92.408 149.6 93.104 149.92Q93.8 150.24 94.104 150.944Q94.408 151.648 94.408 152.832L94.408 157.728L95.272 157.728L95.272 158.624Q94.952 158.704 94.36 158.784Q93.768 158.864 93.32 158.864Q92.776 158.864 92.592 158.704Q92.408 158.544 92.408 158.048L92.408 157.616Q91.976 158.096 91.288 158.48Q90.6 158.864 89.736 158.864Q89 158.864 88.384 158.552Q87.768 158.24 87.4 157.64Q87.032 157.04 87.032 156.192ZM90.76 157.536Q91.096 157.536 91.528 157.336Q91.96 157.136 92.28 156.848L92.28 154.224Q90.84 154.224 90.128 154.712Q89.416 155.2 89.416 155.968Q89.416 156.736 89.776 157.136Q90.136 157.536 90.76 157.536ZM99.608 158.864Q98.616 158.864 97.832 158.392Q97.048 157.92 96.584 156.928Q96.12 155.936 96.12 154.448Q96.12 153.104 96.672 151.992Q97.224 150.88 98.296 150.224Q99.368 149.568 100.872 149.568Q101.48 149.568 102.024 149.696L102.024 146.992L100.456 146.768L100.456 145.888L103.752 145.568L103.8 145.568L104.248 145.904L104.248 157.712L105.112 157.712L105.112 158.624Q103.96 158.864 103.208 158.864Q102.696 158.864 102.48 158.696Q102.264 158.528 102.264 158.032L102.264 157.584Q101.848 158.144 101.128 158.504Q100.408 158.864 99.608 158.864ZM100.44 157.536Q100.968 157.536 101.376 157.32Q101.784 157.104 102.024 156.8L102.024 150.976Q101.912 150.816 101.552 150.704Q101.192 150.592 100.776 150.592Q99.752 150.592 99.136 151.48Q98.52 152.368 98.52 154.32Q98.52 155.952 99.048 156.744Q99.576 157.536 100.44 157.536ZM106.104 156.192Q106.104 154.736 107.568 154Q109.032 153.264 111.352 153.248L111.352 152.88Q111.352 152.224 111.216 151.856Q111.08 151.488 110.72 151.304Q110.36 151.12 109.672 151.12Q108.888 151.12 108.264 151.32Q107.64 151.52 106.968 151.84L106.472 150.816Q106.712 150.608 107.28 150.32Q107.848 150.032 108.632 149.816Q109.416 149.6 110.248 149.6Q111.48 149.6 112.176 149.92Q112.872 150.24 113.176 150.944Q113.48 151.648 113.48 152.832L113.48 157.728L114.344 157.728L114.344 158.624Q114.024 158.704 113.432 158.784Q112.84 158.864 112.392 158.864Q111.848 158.864 111.664 158.704Q111.48 158.544 111.48 158.048L111.48 157.616Q111.048 158.096 110.36 158.48Q109.672 158.864 108.808 158.864Q108.072 158.864 107.456 158.552Q106.84 158.24 106.472 157.64Q106.104 157.04 106.104 156.192ZM109.832 157.536Q110.168 157.536 110.6 157.336Q111.032 157.136 111.352 156.848L111.352 154.224Q109.912 154.224 109.2 154.712Q108.488 155.2 108.488 155.968Q108.488 156.736 108.848 157.136Q109.208 157.536 109.832 157.536ZM116.84 158.832Q116.344 158.832 115.976 158.488Q115.608 158.144 115.608 157.616Q115.608 157.024 116.032 156.648Q116.456 156.272 117.064 156.272Q117.64 156.272 117.976 156.632Q118.312 156.992 118.312 157.488Q118.312 158.112 117.904 158.472Q117.496 158.832 116.84 158.832ZM128.872 153.952Q128.872 155.296 128.32 156.416Q127.768 157.536 126.704 158.2Q125.64 158.864 124.168 158.864Q123.848 158.864 123.504 158.808Q123.16 158.752 122.952 158.672L123 160L123 161.456L124.488 161.648L124.488 162.56L119.736 162.56L119.736 161.648L120.776 161.456L120.776 151.312L119.736 151.024L119.736 149.92L122.376 149.584L122.408 149.584L122.808 149.904L122.808 150.8Q123.208 150.304 123.896 149.936Q124.584 149.568 125.4 149.568Q126.92 149.568 127.896 150.648Q128.872 151.728 128.872 153.952ZM124.568 150.896Q124.088 150.896 123.656 151.104Q123.224 151.312 123 151.568L123 157.504Q123.112 157.664 123.456 157.776Q123.8 157.888 124.216 157.888Q125.256 157.888 125.872 156.984Q126.488 156.08 126.488 154.144Q126.488 152.512 125.96 151.704Q125.432 150.896 124.568 150.896ZM130.184 157.744L131.24 157.616L131.24 151.312L130.216 151.024L130.216 149.92L132.696 149.584L132.744 149.584L133.144 149.904L133.144 150.256L133.096 151.552L133.144 151.552Q133.256 151.232 133.672 150.76Q134.088 150.288 134.72 149.928Q135.352 149.568 136.088 149.568Q136.44 149.568 136.696 149.664L136.696 152.064Q136.216 151.728 135.528 151.728Q134.36 151.728 133.496 152.352L133.496 157.6L135.352 157.744L135.352 158.688L130.184 158.688L130.184 157.744ZM137.72 154.256Q137.72 152.752 138.32 151.696Q138.92 150.64 139.928 150.104Q140.936 149.568 142.12 149.568Q144.136 149.568 145.232 150.808Q146.328 152.048 146.328 154.176Q146.328 155.696 145.728 156.76Q145.128 157.824 144.128 158.344Q143.128 158.864 141.928 158.864Q139.928 158.864 138.824 157.624Q137.72 156.384 137.72 154.256ZM142.056 157.824Q143.864 157.824 143.864 154.336Q143.864 152.512 143.432 151.56Q143 150.608 142.024 150.608Q140.168 150.608 140.168 154.096Q140.168 155.92 140.624 156.872Q141.08 157.824 142.056 157.824Z">
</path>
</g>
<defs>
<radialGradient id="linear_fill_0_4_0" cx="0" cy="0" r="1" gradientTransform="translate(343.8399963378906 282.1919860839844) rotate(-52.86214789757403) scale(289.6039681036496, 289.6039681036496)" gradientUnits="userSpaceOnUse">
<stop offset="0" stop-color="#05874F"  />
<stop offset="1" stop-color="#3DA66B"  />
</radialGradient>
<linearGradient id="linear_fill_0_5" x1="56.973388671875" y1="201" x2="344.0036926269531" y2="201" gradientUnits="userSpaceOnUse">
<stop offset="0" stop-color="#FDFCFB"  />
<stop offset="1" stop-color="#E2D1C3"  />
</linearGradient>
<filter id="filter_0_5" x="42.3836669921875" y="88.5" width="319.3446350097656" height="228.5" filterUnits="userSpaceOnUse" color-interpolation-filters="sRGB">
<feFlood flood-opacity="0" result="feFloodId_0_5"/>
<feColorMatrix in="SourceAlpha" type="matrix" values="0 0 0 0 0 0 0 0 0 0 0 0 0 0 0 0 0 0 127 0" result="hardAlpha_0_5"/>
<feMorphology radius="2" operator="dilate" in="SourceAlpha"/>
<feOffset dx="2" dy="3"/>
<feGaussianBlur stdDeviation="6.5"/>
<feComposite in2="hardAlpha_0_5" operator="out"/>
<feColorMatrix type="matrix" values="0 0 0 0 0 0 0 0 0 0 0 0 0 0 0 0 0 0 0.25 0"/>
<feBlend mode="soft-light" in2="feFloodId_0_5" result="dropShadow_1_0_5"/>
<feBlend mode="normal" in="SourceGraphic" in2="dropShadow_1_0_5" result="shape_0_5"/>
</filter>
</defs>
</svg>
